<svg xmlns="http://www.w3.org/2000/svg" viewBox="0 0 83.77 83.77"><defs><style>.cls-1{isolation:isolate;}.cls-2{fill:#2aace3;}.cls-3{fill:#fff;}.cls-4{fill:#e5e6e6;}.cls-4,.cls-6{mix-blend-mode:multiply;}.cls-5{fill:#f9d732;}.cls-6{fill:#bbbbbd;}</style></defs><title>smart-club-new</title><g class="cls-1"><g id="Layer_1" data-name="Layer 1"><circle class="cls-2" cx="41.88" cy="41.88" r="41.88"/><path class="cls-3" d="M52.69,66.35H27.48l0-21.39H15.7V33.1c3.16-.44,14-2,17.22-15.34H52.69Z" transform="translate(-0.18 -0.23)"/><path class="cls-4" d="M52.69,66.35c.2-12.41-18.22-21.48-20.81-33.15-5.79,13.87,7.24,18.91,9.26,25.56.84,2.75-1.65,7.58-3.68,7.59Z" transform="translate(-0.18 -0.23)"/><path class="cls-5" d="M52.69,66.35c0-5.74,4.4-9.58,7.6-12.73,5.7-5.62,13.64-9,13.64-17.08,0-7.57-5.67-10.32-9.82-10.39-5.35-.09-11.42,4-11.42,12.18,0-8.23-6.07-12.27-11.42-12.18-4.14.07-9.82,2.81-9.82,10.39,0,8,7.94,11.46,13.64,17.08,3.2,3.15,7.6,7,7.6,12.73" transform="translate(-0.18 -0.23)"/><polygon class="cls-6" points="27.28 66.12 27.28 44.73 5.89 44.73 27.28 66.12 27.28 66.12"/></g></g></svg>